<?xml version="1.0" encoding="UTF-8" standalone="no"?>
<svg
   clip-rule="evenodd"
   fill-rule="evenodd"
   stroke-linejoin="round"
   stroke-miterlimit="2"
   viewBox="0 0 48 48"
   version="1.1"
   id="svg31"
   sodipodi:docname="easyeffects.svg"
   inkscape:version="1.1.2 (0a00cf5339, 2022-02-04)"
   xmlns:inkscape="http://www.inkscape.org/namespaces/inkscape"
   xmlns:sodipodi="http://sodipodi.sourceforge.net/DTD/sodipodi-0.dtd"
   xmlns:xlink="http://www.w3.org/1999/xlink"
   xmlns="http://www.w3.org/2000/svg"
   xmlns:svg="http://www.w3.org/2000/svg">
  <defs
     id="defs35" />
  <sodipodi:namedview
     id="namedview33"
     pagecolor="#ffffff"
     bordercolor="#666666"
     borderopacity="1.0"
     inkscape:pageshadow="2"
     inkscape:pageopacity="0.0"
     inkscape:pagecheckerboard="0"
     showgrid="false"
     inkscape:zoom="12.271249"
     inkscape:cx="11.245799"
     inkscape:cy="25.262302"
     inkscape:window-width="1920"
     inkscape:window-height="1011"
     inkscape:window-x="0"
     inkscape:window-y="32"
     inkscape:window-maximized="1"
     inkscape:current-layer="svg31" />
  <linearGradient
     id="a"
     x2="1"
     gradientTransform="matrix(-0.075894,-42.603,42.603,-0.075894,451.577,44.5399)"
     gradientUnits="userSpaceOnUse"
     xlink:href="#b">
    <stop
       stop-color="#529ad6"
       offset="0"
       id="stop2" />
    <stop
       stop-color="#62d0e5"
       offset="1"
       id="stop4" />
  </linearGradient>
  <linearGradient
     id="b"
     x2="1"
     gradientTransform="matrix(0 -35.3911 35.3911 0 1056.25 41.2823)"
     gradientUnits="userSpaceOnUse">
    <stop
       stop-color="#003d83"
       offset="0"
       id="stop7" />
    <stop
       stop-color="#139be3"
       offset="1"
       id="stop9" />
  </linearGradient>
  <clipPath
     id="c">
    <path
       d="m31.78 7.385 26.88 33.61-3.566 11.055-29.099-1.237-10.671-10.3-1.484-30.384 10.16 14.971-1.189-16.356 10.064 15.109-1.095-16.468z"
       clip-rule="evenodd"
       id="path12" />
  </clipPath>
  <circle
     cx="24"
     cy="24"
     r="22.764"
     fill="url(#a)"
     id="circle15"
     style="fill-opacity:1;fill:#d6d6d6" />
  <g
     fill="#ebebeb"
     id="g29"
     style="fill:#000000;fill-opacity:1">
    <path
       d="m10.969 10.91 3.97 28.789c.113.821.871 1.395 1.691 1.281.82-.113 1.394-.87 1.281-1.69l-3.97-28.79c-.113-.82-.871-1.394-1.691-1.281s-1.394.87-1.281 1.691zm9.037-1.247 3.969 28.79c.113.82.871 1.394 1.691 1.281s1.394-.87 1.281-1.691l-3.969-28.789c-.113-.82-.871-1.394-1.691-1.281s-1.394.87-1.281 1.69zm9.037-1.246 3.97 28.79c.113.82.87 1.394 1.69 1.281.821-.113 1.395-.87 1.281-1.691l-3.97-28.789c-.113-.821-.87-1.395-1.69-1.281-.821.113-1.395.87-1.281 1.69z"
       id="path21"
       style="fill:#000000;fill-opacity:1" />
    <path
       d="m15.324 23.143c2.419.304 4.137 2.514 3.833 4.933-.303 2.419-2.513 4.136-4.932 3.833-2.419-.304-4.137-2.514-3.833-4.933.303-2.418 2.513-4.136 4.932-3.833z"
       id="path23"
       style="fill:#000000;fill-opacity:1" />
    <path
       d="m22.811 11.298c2.419.303 4.137 2.514 3.833 4.932-.303 2.419-2.513 4.137-4.932 3.833-2.419-.303-4.136-2.513-3.833-4.932s2.514-4.136 4.932-3.833z"
       id="path25"
       style="fill:#000000;fill-opacity:1" />
    <path
       d="m34.806 30.038c2.418.304 4.136 2.514 3.833 4.933-.304 2.419-2.514 4.136-4.933 3.833-2.419-.304-4.136-2.514-3.833-4.933.304-2.418 2.514-4.136 4.933-3.833z"
       id="path27"
       style="fill:#000000;fill-opacity:1" />
  </g>
</svg>
