<?xml version="1.0" encoding="UTF-8" standalone="no"?>
<svg height="16px" viewBox="0 0 16 16" width="16px" xmlns="http://www.w3.org/2000/svg" sodipodi:docname="eepresetselector-symbolic.svg" inkscape:version="1.1.2 (0a00cf5339, 2022-02-04, custom)" xmlns:inkscape="http://www.inkscape.org/namespaces/inkscape" xmlns:sodipodi="http://sodipodi.sourceforge.net/DTD/sodipodi-0.dtd" xmlns:svg="http://www.w3.org/2000/svg">
    <sodipodi:namedview pagecolor="#ffffff" bordercolor="#666666" borderopacity="1.0" inkscape:pageshadow="2" inkscape:pageopacity="0.0" inkscape:pagecheckerboard="0" showgrid="false" inkscape:zoom="32" inkscape:cx="6.1875" inkscape:cy="6.90625" inkscape:window-width="1920" inkscape:window-height="1011" inkscape:window-x="0" inkscape:window-y="32" inkscape:window-maximized="1" inkscape:current-layer="svg13"/>
    <path d="m 8 0 a 8 8 0 0 0 -8 8 a 8 8 0 0 0 8 8 a 8 8 0 0 0 8 -8 a 8 8 0 0 0 -8 -8 z m 2.275391 1.9257812 c 0.017498 -0.0006312 0.035268 -0.0011224 0.052734 0 c 0.244518 0.0157164 0.453533 0.2026181 0.488281 0.4550782 l 1.06836 7.7558596 c 0.802664 0.147877 1.362503 0.898537 1.259765 1.71875 c -0.106836 0.850115 -0.884261 1.454139 -1.734375 1.347656 c -0.850114 -0.106836 -1.4521868 -0.884261 -1.345703 -1.734375 c 0.063813 -0.507565 0.366872 -0.926882 0.78125 -1.160156 l -1.0742186 -7.7851565 c -0.0400633 -0.2881743 0.1626463 -0.5540381 0.4511716 -0.59375 c 0.018011 -0.0025039 0.035237 -0.0032749 0.052735 -0.0039063 z m -3.1757816 0.4375 c 0.0174968 -0.0006407 0.035264 -0.001139 0.0527344 0 c 0.244585 0.0159471 0.4535334 0.2029256 0.4882812 0.4550782 l 0.1035156 0.7480468 c 0.7631153 0.178677 1.2854408 0.9085735 1.1855469 1.703125 c -0.0640487 0.5113327 -0.3718966 0.9320086 -0.7910156 1.1640626 l 0.8964843 6.5019532 c 0.039712 0.288525 -0.1610444 0.55404 -0.4492187 0.59375 c -0.2881743 0.039712 -0.554038 -0.161045 -0.59375 -0.449219 l -0.8945313 -6.4804686 c -0.7977775 -0.1517045 -1.3503768 -0.8998451 -1.2480468 -1.7167969 c 0.0669408 -0.5344217 0.3972911 -0.9709592 0.8457031 -1.1953125 l -0.0996094 -0.7265625 c -0.0397118 -0.2881743 0.1629976 -0.5540381 0.4511719 -0.59375 c 0.0180109 -0.002482 0.0352375 -0.0032653 0.0527344 -0.0039063 z m -3.1757813 0.4375 c 0.0174969 -0.0006407 0.0352641 -0.0011389 0.0527344 0 c 0.2445851 0.0159471 0.4535334 0.2029256 0.4882813 0.4550782 l 0.6152343 4.4667968 c 0.7809346 0.1653992 1.3200703 0.902755 1.21875 1.7089844 c -0.0655335 0.5231866 -0.3862065 0.9533034 -0.8203125 1.1816404 l 0.3808594 2.759766 c 0.0397118 0.288174 -0.1610444 0.55404 -0.4492188 0.59375 c -0.2881742 0.040063 -0.5540379 -0.160693 -0.59375 -0.449219 l -0.3808593 -2.761719 c -0.7809345 -0.165399 -1.3200703 -0.9047076 -1.21875 -1.7109371 c 0.0655335 -0.5229704 0.3862065 -0.9512804 0.8203125 -1.1796875 l -0.6171875 -4.4648438 c -0.0397118 -0.2885257 0.1629974 -0.5559912 0.4511719 -0.5957031 c 0.0180107 -0.002482 0.0352375 -0.0032653 0.0527343 -0.0039063 z" fill="#2e3335"/>
</svg>
